<?xml version="1.0" encoding="UTF-8"?>
<svg version="1.1" xmlns="http://www.w3.org/2000/svg" width="400" height="400">
<path d="M0 0 C132 0 264 0 400 0 C400 132 400 264 400 400 C268 400 136 400 0 400 C0 268 0 136 0 0 Z " fill="#2973AF" transform="translate(0,0)"/>
<path d="M0 0 C6.93 0 13.86 0 21 0 C21 6.28055798 20.95295835 11.05408294 20 17 C19.80916389 19.34320905 19.64331328 21.68856119 19.5 24.03515625 C19.4175 25.33904297 19.335 26.64292969 19.25 27.98632812 C19.12419101 30.0290041 18.99943702 32.07174197 18.875 34.11450195 C18.7525386 36.10904421 18.6263091 38.10335396 18.5 40.09765625 C18.4278125 41.27851807 18.355625 42.45937988 18.28125 43.67602539 C18 47 18 47 17.48144531 50.10717773 C16.71218032 54.72939929 16.77480774 59.32374169 16.75 64 C16.729375 64.97195312 16.70875 65.94390625 16.6875 66.9453125 C16.65782327 72.39099184 16.8776353 76.32388715 20 81 C25.08915491 85.70746829 29.26729312 86.42526764 36.01171875 86.3359375 C41.76710314 85.68892697 46.73751348 83.49085957 50.6640625 79.16796875 C55.64977676 71.77686602 56.33970738 63.23449599 57 54.5703125 C57.08121094 53.58110809 57.16242188 52.59190369 57.24609375 51.57272339 C57.50366446 48.42395244 57.75236821 45.2745668 58 42.125 C58.3297125 38.00230579 58.66342489 33.87995193 59 29.7578125 C59.0810498 28.76082336 59.16209961 27.76383423 59.24560547 26.7366333 C59.98651912 17.80073789 60.95989227 8.90592241 62 0 C68.93 0 75.86 0 83 0 C81.96939646 15.3776896 80.75083068 30.74152433 79.37194824 46.09185791 C79.20889955 47.92944009 79.05068003 49.76745795 78.89758301 51.605896 C77.50821839 68.19110589 75.43353698 84.40419866 62.625 96.375 C51.71776483 105.40982646 39.00109006 108.17218428 25 107 C15.97913609 105.48812337 8.21716945 101.23762268 2.625 93.9375 C1.73416318 92.63569702 0.85705478 91.32428787 0 90 C-0.86625 88.7625 -0.86625 88.7625 -1.75 87.5 C-4.95295889 81.09408222 -5.35601603 74.5265195 -5.3125 67.5 C-5.30976074 66.56857178 -5.30702148 65.63714355 -5.30419922 64.67749023 C-5.13588501 52.69139076 -3.82011049 40.77892583 -2.59341431 28.86489868 C-1.93126053 22.41560198 -1.36178847 15.9597275 -0.8125 9.5 C-0.544375 6.365 -0.27625 3.23 0 0 Z " fill="#FBFDFC" transform="translate(33,145)"/>
<path d="M0 0 C0.99 0.33 1.98 0.66 3 1 C4.21063719 3.53208433 5.21757849 5.97342981 6.17578125 8.6015625 C6.47559402 9.39865631 6.7754068 10.19575012 7.08430481 11.01699829 C10.95807768 21.40736876 14.57029605 31.89331983 18.1875 42.375 C18.89228536 44.40765362 19.59736231 46.44020616 20.30273438 48.47265625 C23.33054859 57.20761419 26.35515166 65.94179119 29.22265625 74.73095703 C30.00845497 77.0246798 30.88659508 79.25954515 31.8125 81.5 C33.9707638 86.76997747 35.86015583 92.12941251 37.75 97.5 C38.06815674 98.39783203 38.38631348 99.29566406 38.71411133 100.22070312 C39.15726685 101.48817383 39.15726685 101.48817383 39.609375 102.78125 C39.87717773 103.54501953 40.14498047 104.30878906 40.42089844 105.09570312 C41 107 41 107 41 109 C33.74 109 26.48 109 19 109 C16 101 16 101 14 92 C0.8 92.33 -12.4 92.66 -26 93 C-28.31 98.28 -30.62 103.56 -33 109 C-40.26 109 -47.52 109 -55 109 C-54.07535548 104.3767774 -52.90584209 101.51896944 -50.75390625 97.3984375 C-50.26386108 96.45390717 -50.26386108 96.45390717 -49.76391602 95.49029541 C-48.70276861 93.44867739 -47.63279657 91.41183427 -46.5625 89.375 C-45.82687944 87.96429741 -45.09177454 86.55332581 -44.35717773 85.14208984 C-42.56341274 81.69990165 -40.76246518 78.2615445 -38.95800781 74.82495117 C-37.64681354 72.32719959 -36.33930958 69.82751929 -35.03125 67.328125 C-31.9332697 61.42005872 -28.81311257 55.52397548 -25.67578125 49.63671875 C-21.74291558 42.24940992 -17.88976527 34.83579445 -14.17724609 27.33520508 C-9.60890261 18.14286202 -4.78845302 9.07899168 0 0 Z " fill="#F9FDFB" transform="translate(334,141)"/>
<path d="M0 0 C-0.33 8.25 -0.66 16.5 -1 25 C-4.76284596 23.11857702 -7.56853524 21.0578662 -10.8046875 18.4375 C-19.11325797 12.99701257 -31.75660181 13.72067792 -41.18359375 15.65234375 C-43.6743062 16.55770413 -45.76058632 17.58764251 -48 19 C-48.70125 19.43957031 -49.4025 19.87914062 -50.125 20.33203125 C-56.55676134 25.14367089 -60.96737399 32.26733474 -63 40 C-64.52065184 50.87933775 -64.28400582 62.45514665 -57.75 71.75 C-53.35053111 77.51527415 -47.03443883 79.98602684 -40 81 C-26.92279222 82.00112595 -16.5548153 77.49947403 -6 70 C-5.95362917 72.57100478 -5.94271686 75.13557071 -5.97265625 77.70703125 C-5.99131937 79.95460457 -5.95503569 82.20313596 -5.87109375 84.44921875 C-5.87500449 87.87894103 -6.01428607 90.71125859 -7 94 C-9.96327099 96.79036383 -13.15570489 97.8175553 -17 99 C-17.7321875 99.31324219 -18.464375 99.62648438 -19.21875 99.94921875 C-30.63401341 104.39072089 -46.76914883 103.42571677 -58 99 C-70.37876093 93.4861103 -77.87742761 84.78203698 -83.125 72.41015625 C-88.46599895 57.6985654 -85.84085325 39.05009359 -79.71484375 25.06640625 C-72.52591397 10.62847207 -60.47057532 0.22978578 -45.328125 -4.90625 C-29.40685434 -9.55353981 -14.65306663 -7.32653331 0 0 Z " fill="#FAFDFB" transform="translate(206,150)"/>
<path d="M0 0 C6.93 0 13.86 0 21 0 C19.56021486 18.18059665 18.0644732 36.35625635 16.54486084 54.53033447 C16.25614981 57.98438898 15.96793958 61.43848529 15.6796875 64.89257812 C15.12031196 71.59509573 14.56014128 78.29754618 14 85 C27.2 85 40.4 85 54 85 C53.48613982 91.68018238 52.94751136 98.36742048 52 105 C31.87 105 11.74 105 -9 105 C-9 98.58832429 -8.89776935 92.49669778 -8.265625 86.1640625 C-8.18764175 85.34250168 -8.10965851 84.52094086 -8.02931213 83.67448425 C-7.77376915 80.99089897 -7.51186465 78.30797509 -7.25 75.625 C-6.97660043 72.77082282 -6.70485892 69.91649065 -6.43318176 67.06214905 C-6.24474635 65.0835311 -6.05576443 63.10496512 -5.86625671 61.12644958 C-5.18251266 53.97549533 -4.52347452 46.82255542 -3.87890625 39.66796875 C-3.78884308 38.66890503 -3.69877991 37.66984131 -3.60598755 36.64050293 C-3.2553107 32.74547231 -2.90530316 28.85038341 -2.55700684 24.95513916 C-2.31654005 22.2681612 -2.07440948 19.58133736 -1.83203125 16.89453125 C-1.76238663 16.10982956 -1.692742 15.32512787 -1.62098694 14.51664734 C-1.55374924 13.77356827 -1.48651154 13.0304892 -1.41723633 12.26489258 C-1.36046219 11.63069901 -1.30368805 10.99650543 -1.24519348 10.34309387 C-0.88377687 6.88935998 -0.43072211 3.44577687 0 0 Z " fill="#FAFDFC" transform="translate(223,145)"/>
<path d="M0 0 C7.59 0 15.18 0 23 0 C23 1.98 23 3.96 23 6 C23.99 6.33 24.98 6.66 26 7 C25.34 7 24.68 7 24 7 C24.020625 8.27875 24.04125 9.5575 24.0625 10.875 C24.125 14.75 24.125 14.75 23 17 C22.79797942 19.39432486 22.64756176 21.76919628 22.53515625 24.16796875 C22.45657441 25.63347397 22.37779185 27.09896843 22.29882812 28.56445312 C22.17967789 30.87038943 22.06304193 33.17640043 21.95043945 35.48266602 C21.83989547 37.71153 21.71931255 39.93968741 21.59765625 42.16796875 C21.56736832 42.84740036 21.53708038 43.52683197 21.50587463 44.22685242 C21.25025874 48.78451083 20.38009396 52.68401253 19 57 C18.34 57 17.68 57 17 57 C17.60577025 46.49790374 18.36957016 36.0193995 19.30224609 25.54125977 C19.50325169 23.27585223 19.6990163 21.01002794 19.89453125 18.74414062 C20.02312655 17.28382675 20.15202125 15.8235392 20.28125 14.36328125 C20.39533203 13.06688721 20.50941406 11.77049316 20.62695312 10.43481445 C21 7 21 7 22 2 C15.07 2 8.14 2 1 2 C0.89558594 4.43246094 0.79117188 6.86492187 0.68359375 9.37109375 C-0.03294735 23.86903765 -1.43772091 38.32256135 -2.73345947 52.77764893 C-3.00521607 55.8207863 -3.27296023 58.86427101 -3.54064083 61.9077692 C-3.80418454 64.89987787 -4.06982523 67.89179762 -4.336092 70.88366508 C-4.46055573 72.28382285 -4.58452753 73.68402446 -4.70792961 75.0842762 C-5.64971111 85.74512376 -6.81763409 96.35870682 -8 107 C12.13 107 32.26 107 53 107 C53.33 102.05 53.66 97.1 54 92 C54.33 90.35 54.66 88.7 55 87 C41.8 87 28.6 87 15 87 C15 78.16428022 15.1041249 69.73478227 16 61 C16.33 61 16.66 61 17 61 C17.19504458 63.10348074 17.38078496 65.20782585 17.5625 67.3125 C17.66691406 68.48425781 17.77132812 69.65601563 17.87890625 70.86328125 C18 74 18 74 17 77 C16.83322718 80.58343976 16.83322718 80.58343976 17 84 C18.9230889 85.9230889 22.47070485 85.25321838 25.09765625 85.31640625 C25.80651474 85.33718735 26.51537323 85.35796844 27.24571228 85.37937927 C29.51787305 85.44494598 31.79015264 85.5037923 34.0625 85.5625 C35.59962183 85.60567849 37.1367315 85.64929255 38.67382812 85.69335938 C42.4490959 85.80063449 46.2244836 85.90188137 50 86 C50.495 84.515 50.495 84.515 51 83 C52.65 83.33 54.3 83.66 56 84 C56.99 88.455 56.99 88.455 58 93 C58.99 93 59.98 93 61 93 C61.28875 92.113125 61.5775 91.22625 61.875 90.3125 C64.6097561 82.2601626 64.6097561 82.2601626 68 80 C69.21284876 76.94570927 69.21284876 76.94570927 70 74 C70.66 74 71.32 74 72 74 C72 72.35 72 70.7 72 69 C72.66 69 73.32 69 74 69 C74 67.68 74 66.36 74 65 C74.66 64.67 75.32 64.34 76 64 C76.12375 62.9275 76.2475 61.855 76.375 60.75 C77.06584631 56.60492216 78.21509882 55.04598567 81 52 C81.495 51.01 81.495 51.01 82 50 C82.66 50 83.32 50 84 50 C84.66 47.69 85.32 45.38 86 43 C86.66 43 87.32 43 88 43 C88.103125 41.906875 88.20625 40.81375 88.3125 39.6875 C89.04753021 35.74506526 89.36954555 35.56419615 92 33 C92.88262955 31.13658863 92.88262955 31.13658863 93.5 29.125 C94.6682445 25.80987686 95.93151608 22.87789067 98 20 C98.66 20 99.32 20 100 20 C100.66 17.69 101.32 15.38 102 13 C102.66 13 103.32 13 104 13 C102.59925334 17.59313585 100.71973613 21.76967742 98.5 26.01171875 C98.1520639 26.68529922 97.80412781 27.3588797 97.44564819 28.0528717 C96.30109511 30.26650955 95.15056335 32.47698099 94 34.6875 C93.19568399 36.24033087 92.3918175 37.79339466 91.58837891 39.34667969 C89.91115386 42.58858521 88.23197373 45.82946794 86.55175781 49.06982422 C84.05135321 53.8959842 81.56637748 58.72996088 79.0859375 63.56640625 C78.68844299 64.34114792 78.29094849 65.11588959 77.88140869 65.91410828 C76.34376637 68.91125684 74.80623273 71.90846019 73.27001953 74.90634155 C72.20980309 76.97460954 71.14836709 79.04224304 70.0859375 81.109375 C69.74955261 81.76388138 69.41316772 82.41838776 69.06658936 83.09272766 C66.27508641 88.50529122 63.41240813 93.87870761 60.50595093 99.23040771 C59.11825123 101.80364631 57.92707681 104.21876958 57 107 C64.26 107 71.52 107 79 107 C79.33 105.35 79.66 103.7 80 102 C81.98 98.04 83.96 94.08 86 90 C99.2 90 112.4 90 126 90 C131 105 131 105 131 107 C138.26 107 145.52 107 153 107 C153 107.99 153 108.98 153 110 C145.41 110 137.82 110 130 110 C128.12512898 106.25025796 126.57710236 103.13079031 125.3125 99.25 C124.93544922 98.11304688 124.93544922 98.11304688 124.55078125 96.953125 C124 95 124 95 124 93 C119.67669221 92.9503989 115.35353715 92.9141856 111.0300293 92.89013672 C109.56059888 92.88010648 108.09118829 92.86647899 106.62182617 92.84912109 C104.50434463 92.82474102 102.38712801 92.81348714 100.26953125 92.8046875 C98.99698486 92.79421387 97.72443848 92.78374023 96.41333008 92.77294922 C93.14164829 92.99057772 90.93042634 93.58497375 88 95 C87.67 97.31 87.34 99.62 87 102 C86.01 102 85.02 102 84 102 C83.731875 102.78375 83.46375 103.5675 83.1875 104.375 C82 107 82 107 79 109 C76.5480957 109.22705078 76.5480957 109.22705078 73.67578125 109.1953125 C72.13374023 109.18564453 72.13374023 109.18564453 70.56054688 109.17578125 C69.48869141 109.15902344 68.41683594 109.14226562 67.3125 109.125 C66.22904297 109.11597656 65.14558594 109.10695313 64.02929688 109.09765625 C61.3526429 109.0740734 58.67643203 109.04116126 56 109 C56 108.34 56 107.68 56 107 C55.01 107.66 54.02 108.32 53 109 C50.3368988 109.24723816 50.3368988 109.24723816 47.09155273 109.24291992 C45.87696884 109.24599655 44.66238495 109.24907318 43.41099548 109.25224304 C42.09845291 109.24505753 40.78591034 109.23787201 39.43359375 109.23046875 C38.07503808 109.22927651 36.71648158 109.22882388 35.35792542 109.2290802 C32.51240876 109.22751666 29.66701815 109.2192363 26.8215332 109.20581055 C23.17067549 109.18880471 19.51995606 109.18499675 15.86906338 109.18575573 C13.06470922 109.18548409 10.26038541 109.18000412 7.45604134 109.17275429 C5.45405064 109.16801716 3.45205356 109.16629131 1.45005798 109.16459656 C0.23862625 109.15821671 -0.97280548 109.15183685 -2.22094727 109.14526367 C-3.29111588 109.14145187 -4.36128448 109.13764008 -5.46388245 109.13371277 C-8 109 -8 109 -10 108 C-11.40382199 103.61495157 -10.89712992 99.27374606 -10.51171875 94.76171875 C-10.44845901 93.96329056 -10.38519928 93.16486237 -10.32002258 92.34223938 C-10.18449491 90.65001188 -10.04559789 88.9580513 -9.90356445 87.26635742 C-9.69146152 84.73478314 -9.49028777 82.20253474 -9.29101562 79.66992188 C-8.46581726 69.40526842 -7.37459908 59.20610974 -6 49 C-5.34 49 -4.68 49 -4 49 C-4.01160156 48.030625 -4.02320313 47.06125 -4.03515625 46.0625 C-4.16780742 30.35224546 -2.95885979 15.43752932 0 0 Z " fill="#3E759C" transform="translate(222,143)"/>
<path d="M0 0 C0.99 0.66 1.98 1.32 3 2 C3.38834565 7.58246865 2.75765308 12.97118026 2 18.5 C1.85691406 19.59054688 1.85691406 19.59054688 1.7109375 20.703125 C1.47853833 22.46935867 1.23993362 24.23477406 1 26 C2.32 26 3.64 26 5 26 C5.66 26.99 6.32 27.98 7 29 C7.99 25.535 7.99 25.535 9 22 C9.66 22 10.32 22 11 22 C11 20.68 11 19.36 11 18 C11.99 18 12.98 18 14 18 C14.144375 17.38125 14.28875 16.7625 14.4375 16.125 C15 14 15 14 16 12 C16.66 12 17.32 12 18 12 C18.66 10.35 19.32 8.7 20 7 C21.32 7.33 22.64 7.66 24 8 C23.62488281 8.4846875 23.24976563 8.969375 22.86328125 9.46875 C12.34840787 23.24138012 6.63256415 36.28796237 6.6875 53.8125 C6.67138672 54.82892578 6.65527344 55.84535156 6.63867188 56.89257812 C6.63412633 64.0245359 7.78986114 70.22575298 10 77 C7.55441834 74.67111107 6.40554478 72.98885503 5.375 69.75 C5.13523437 69.02296875 4.89546875 68.2959375 4.6484375 67.546875 C3.12059691 61.54595896 2.86440219 55.70833925 2.9375 49.5625 C2.94201172 48.83095703 2.94652344 48.09941406 2.95117188 47.34570312 C2.96281852 45.56376581 2.98074809 43.78187137 3 42 C-0.16038327 43.63188877 -0.16038327 43.63188877 -0.60009766 46.21142578 C-0.70370605 47.1136084 -0.80731445 48.01579102 -0.9140625 48.9453125 C-1.03523438 49.94046875 -1.15640625 50.935625 -1.28125 51.9609375 C-1.45140625 53.52714844 -1.45140625 53.52714844 -1.625 55.125 C-1.74617188 56.1459375 -1.86734375 57.166875 -1.9921875 58.21875 C-2.22880343 60.21969777 -2.45974755 62.2213257 -2.68457031 64.22363281 C-2.96492194 66.6912479 -3.26872943 69.15409463 -3.5859375 71.6171875 C-4.04049837 74.76285413 -4.04049837 74.76285413 -4 77 C-5.485 77.495 -5.485 77.495 -7 78 C-8.23277127 79.86022072 -8.23277127 79.86022072 -9.1875 82.0625 C-9.70376953 83.16271484 -9.70376953 83.16271484 -10.23046875 84.28515625 C-10.48441406 84.85105469 -10.73835938 85.41695313 -11 86 C-11.66 86 -12.32 86 -13 86 C-13.2475 86.639375 -13.495 87.27875 -13.75 87.9375 C-15 90 -15 90 -17.078125 90.62890625 C-17.71234375 90.75136719 -18.3465625 90.87382812 -19 91 C-18.62488281 90.55011719 -18.24976562 90.10023438 -17.86328125 89.63671875 C-3.72298064 71.86339381 -4.13295569 48.66492717 -2.3125 27 C-2.08601697 24.37493687 -1.8588092 21.74993617 -1.63085938 19.125 C-1.07888312 12.75069549 -0.53585357 6.37567904 0 0 Z " fill="#3F78A0" transform="translate(115,150)"/>
<path d="M0 0 C0.66 0 1.32 0 2 0 C3.2666969 4.0374771 4.5300169 8.07599084 5.7902832 12.11547852 C6.21905438 13.48816091 6.64873044 14.860561 7.0793457 16.23266602 C7.69983956 18.21035567 8.31702098 20.18905364 8.93359375 22.16796875 C9.4913147 23.95110474 9.4913147 23.95110474 10.06030273 25.77026367 C11 29 11 29 12 34 C3.42 34 -5.16 34 -14 34 C-12.21354564 28.64063691 -10.56566015 23.74165988 -8.30078125 18.65234375 C-7.81416016 17.55341797 -7.32753906 16.45449219 -6.82617188 15.32226562 C-6.32666016 14.20529297 -5.82714844 13.08832031 -5.3125 11.9375 C-4.80138672 10.78572266 -4.29027344 9.63394531 -3.76367188 8.44726562 C-2.51278694 5.62985188 -1.25815677 2.81417202 0 0 Z " fill="#2E73A9" transform="translate(331,182)"/>
<path d="M0 0 C6.93 0 13.86 0 21 0 C21 6.28055798 20.95295835 11.05408294 20 17 C19.80916389 19.34320905 19.64331328 21.68856119 19.5 24.03515625 C19.4175 25.33904297 19.335 26.64292969 19.25 27.98632812 C19.12419101 30.0290041 18.99943702 32.07174197 18.875 34.11450195 C18.7525386 36.10904421 18.6263091 38.10335396 18.5 40.09765625 C18.4278125 41.27851807 18.355625 42.45937988 18.28125 43.67602539 C18 47 18 47 17.48144531 50.10717773 C16.71218032 54.72939929 16.77480774 59.32374169 16.75 64 C16.729375 64.97195312 16.70875 65.94390625 16.6875 66.9453125 C16.65782327 72.39099184 16.8776353 76.32388715 20 81 C25.08915491 85.70746829 29.26729312 86.42526764 36.01171875 86.3359375 C41.78076601 85.68739101 46.87489764 83.51919411 50.6640625 79.02734375 C51.92290253 77.05810569 52.99417128 75.10804936 54 73 C54.37125 72.25878906 54.7425 71.51757812 55.125 70.75390625 C55.41375 70.17511719 55.7025 69.59632813 56 69 C56.54064915 74.9471407 55.78816232 78.98066147 52.70703125 84.1484375 C49.71189352 87.39716813 46.19998782 87.514051 42 88 C41.67 88.33 41.34 88.66 41 89 C33.45193615 89.5763573 26.76378718 89.56636051 20 86 C15.6235607 81.7357771 15.06559554 78.18440191 14.88647461 72.21948242 C14.88663149 70.76480159 14.89219495 69.31011419 14.90234375 67.85546875 C14.9037587 67.08568192 14.90517365 66.31589508 14.90663147 65.52278137 C14.91220394 63.07764712 14.92475129 60.63260632 14.9375 58.1875 C14.94251856 56.52408987 14.94708085 54.8606783 14.95117188 53.19726562 C14.96216434 49.13147472 14.9794099 45.06575317 15 41 C15.33 41 15.66 41 16 41 C16.60260099 32.32685006 17.1882307 23.70044116 17 15 C17.66 15 18.32 15 19 15 C18.814375 13.7625 18.62875 12.525 18.4375 11.25 C18.05288777 8.23720423 17.9125406 5.89989173 19 3 C17.68 3.33 16.36 3.66 15 4 C15 3.34 15 2.68 15 2 C9.555 2.495 9.555 2.495 4 3 C4 5.15634036 4.4465236 6.92446352 5 9 C4.01 9.33 3.02 9.66 2 10 C0.88176185 12.23647631 0.80603939 13.64891529 0.68359375 16.1328125 C0.64169922 16.93847656 0.59980469 17.74414062 0.55664062 18.57421875 C0.49766602 19.83685547 0.49766602 19.83685547 0.4375 21.125 C0.39431641 21.97449219 0.35113281 22.82398438 0.30664062 23.69921875 C0.20045764 25.79928223 0.09971503 27.89961948 0 30 C-0.66 30 -1.32 30 -2 30 C-1.85908107 26.68727224 -1.71134606 23.37488029 -1.5625 20.0625 C-1.50352539 18.67321289 -1.50352539 18.67321289 -1.44335938 17.25585938 C-1.40146484 16.33740234 -1.35957031 15.41894531 -1.31640625 14.47265625 C-1.27974854 13.64000244 -1.24309082 12.80734863 -1.20532227 11.94946289 C-0.92730699 7.95576184 -0.44209783 3.97888051 0 0 Z " fill="#D8F1F7" transform="translate(33,145)"/>
<path d="M0 0 C0.87454834 0.00523682 1.74909668 0.01047363 2.65014648 0.01586914 C3.59438477 0.0190918 4.53862305 0.02231445 5.51147461 0.02563477 C6.50469727 0.03401367 7.49791992 0.04239258 8.52124023 0.05102539 C9.51833008 0.05553711 10.51541992 0.06004883 11.54272461 0.06469727 C14.01478872 0.07652532 16.48673541 0.0930069 18.95874023 0.11352539 C19.45374023 1.10352539 19.45374023 1.10352539 19.95874023 2.11352539 C13.02874023 2.11352539 6.09874023 2.11352539 -1.04125977 2.11352539 C-1.01290039 3.83313477 -0.98454102 5.55274414 -0.95532227 7.32446289 C-0.95724158 13.87890753 -1.60601467 20.24161364 -2.41625977 26.73852539 C-3.67418621 37.26557686 -4.62919137 47.77355155 -5.21850586 58.36010742 C-5.80884605 67.43093954 -7.1010966 77.556153 -14.04125977 84.11352539 C-20.60629251 88.79096282 -27.07076651 90.31097039 -35.04125977 89.11352539 C-38.72875977 87.61352539 -38.72875977 87.61352539 -41.04125977 86.11352539 C-41.04125977 85.78352539 -41.04125977 85.45352539 -41.04125977 85.11352539 C-40.07446289 85.15993164 -39.10766602 85.20633789 -38.11157227 85.25415039 C-30.58944406 85.46268464 -24.82112516 85.32893784 -17.89672852 81.98852539 C-16.04125977 81.11352539 -16.04125977 81.11352539 -14.04125977 81.11352539 C-13.93813477 80.20602539 -13.83500977 79.29852539 -13.72875977 78.36352539 C-13.04125977 75.11352539 -13.04125977 75.11352539 -11.54125977 73.17602539 C-7.84801628 68.0978156 -8.84496439 59.78858347 -8.66625977 53.73852539 C-8.24074361 42.03256651 -6.95058634 30.50836246 -5.40991211 18.90258789 C-5.07242327 16.34929486 -4.75050507 13.79470879 -4.43579102 11.23852539 C-3.04586064 0.16939663 -3.04586064 0.16939663 0 0 Z " fill="#38729E" transform="translate(96.041259765625,142.886474609375)"/>
<path d="M0 0 C3.12310532 2.23562853 6.0363825 4.62243991 8.80078125 7.2890625 C8.47078125 7.9490625 8.14078125 8.6090625 7.80078125 9.2890625 C7.21296875 8.6084375 7.21296875 8.6084375 6.61328125 7.9140625 C4.84319131 6.12488051 4.84319131 6.12488051 2.23828125 5.3515625 C1.43390625 5.0009375 0.62953125 4.6503125 -0.19921875 4.2890625 C-0.54726562 3.29712891 -0.54726562 3.29712891 -0.90234375 2.28515625 C-2.10876906 -0.07453145 -2.10876906 -0.07453145 -5.3671875 -0.4609375 C-6.7049517 -0.57279747 -8.04548518 -0.65420811 -9.38671875 -0.7109375 C-10.09562256 -0.74582275 -10.80452637 -0.78070801 -11.53491211 -0.81665039 C-20.5693025 -1.03988242 -30.45579845 0.44112654 -37.51171875 6.4765625 C-38.39859375 7.4046875 -39.28546875 8.3328125 -40.19921875 9.2890625 C-41.18921875 9.7840625 -41.18921875 9.7840625 -42.19921875 10.2890625 C-42.48796875 11.1965625 -42.77671875 12.1040625 -43.07421875 13.0390625 C-44.19921875 16.2890625 -44.19921875 16.2890625 -46.16015625 18.31640625 C-49.13207413 22.64902982 -49.36213577 26.95940632 -49.94921875 32.1015625 C-50.07425781 33.08060547 -50.19929687 34.05964844 -50.328125 35.06835938 C-50.63320923 37.47383117 -50.92303947 39.88013009 -51.19921875 42.2890625 C-50.53921875 42.2890625 -49.87921875 42.2890625 -49.19921875 42.2890625 C-48.86921875 44.9290625 -48.53921875 47.5690625 -48.19921875 50.2890625 C-47.20921875 50.6190625 -46.21921875 50.9490625 -45.19921875 51.2890625 C-44.91046875 52.0934375 -44.62171875 52.8978125 -44.32421875 53.7265625 C-43.44467875 56.49043862 -43.44467875 56.49043862 -40.82421875 57.4140625 C-39.52484375 57.8471875 -39.52484375 57.8471875 -38.19921875 58.2890625 C-37.60141602 58.79155518 -37.00361328 59.29404785 -36.38769531 59.81176758 C-33.63304 61.6712521 -31.86206943 61.71292285 -28.55859375 61.80078125 C-26.95371094 61.85395508 -26.95371094 61.85395508 -25.31640625 61.90820312 C-24.20523438 61.93076172 -23.0940625 61.95332031 -21.94921875 61.9765625 C-20.82257813 62.01072266 -19.6959375 62.04488281 -18.53515625 62.08007812 C-15.75660974 62.16249264 -12.97837623 62.23166548 -10.19921875 62.2890625 C-13.65325789 65.74310164 -18.26604997 65.3770661 -22.94921875 65.5390625 C-31.06187719 65.41725081 -38.09879571 63.23727954 -44.44140625 58.1015625 C-51.93691568 50.37285944 -52.62794053 41.4159259 -52.72485352 31.21606445 C-52.52197281 20.82988099 -48.81615204 12.88492843 -41.76171875 5.1640625 C-31.50149238 -3.9869502 -12.19698005 -6.79511113 0 0 Z " fill="#42779A" transform="translate(194.19921875,166.7109375)"/>
<path d="M0 0 C0.66 0.33 1.32 0.66 2 1 C2 1.66 2 2.32 2 3 C3.32 3.33 4.64 3.66 6 4 C5.979375 5.2375 5.95875 6.475 5.9375 7.75 C5.93233319 10.6640825 6.06984442 13.20953327 7 16 C7.66 16 8.32 16 9 16 C9.25523437 17.10794922 9.25523437 17.10794922 9.515625 18.23828125 C11.22054851 25.37538125 13.38201064 32.15133983 16 39 C16.28101563 39.80179688 16.56203125 40.60359375 16.8515625 41.4296875 C17.99207535 45.45018216 17.99207535 45.45018216 21 48 C21.64663557 51.08948105 22.02428349 54.18386071 22.4375 57.3125 C22.623125 58.199375 22.80875 59.08625 23 60 C23.66 60.33 24.32 60.66 25 61 C27.87617307 66.92461693 29.36859069 72.99213793 30.9375 79.37890625 C31.88756177 83.01393201 31.88756177 83.01393201 33.61328125 86.22265625 C35.32293387 89.64677741 35.22657722 92.22371301 35 96 C35.99 96.33 36.98 96.66 38 97 C38.6953125 98.92578125 38.6953125 98.92578125 39.125 101.3125 C39.27195312 102.09238281 39.41890625 102.87226563 39.5703125 103.67578125 C39.71210938 104.44277344 39.85390625 105.20976562 40 106 C40.22429687 106.71542969 40.44859375 107.43085938 40.6796875 108.16796875 C40.78539062 108.77253906 40.89109375 109.37710938 41 110 C40.34 110.66 39.68 111.32 39 112 C38.66790527 111.07888428 38.66790527 111.07888428 38.32910156 110.13916016 C37.3045055 107.30046399 36.27726592 104.46273104 35.25 101.625 C34.90195312 100.65949219 34.55390625 99.69398438 34.1953125 98.69921875 C32.53736878 94.1245222 30.84419395 89.58262305 28.984375 85.0859375 C27.53470287 81.50184999 26.32179432 77.9099868 25.2109375 74.20703125 C22.61314071 65.55573434 19.60490354 57.05031664 16.61914062 48.52661133 C15.63091544 45.70439357 14.64721596 42.88062862 13.6640625 40.05664062 C10.02885964 29.6013695 10.02885964 29.6013695 6.18652344 19.22119141 C5.76456192 18.11902031 5.76456192 18.11902031 5.33407593 16.99458313 C4.81094601 15.63935504 4.28177301 14.2864369 3.74526978 12.93644714 C2.47890283 9.66901088 2 7.58208093 2 4 C1.01 4 0.02 4 -1 4 C-0.67 2.68 -0.34 1.36 0 0 Z " fill="#3E7497" transform="translate(335,136)"/>
<path d="M0 0 C2.9375 0.375 2.9375 0.375 6 1 C7.2846039 3.56920779 7.03922933 5.25338803 6.9140625 8.12109375 C6.87023437 9.13880859 6.82640625 10.15652344 6.78125 11.20507812 C6.7296875 12.27177734 6.678125 13.33847656 6.625 14.4375 C6.58117187 15.50033203 6.53734375 16.56316406 6.4921875 17.65820312 C6.13006525 25.60980426 6.13006525 25.60980426 5 29 C4.34 29 3.68 29 3 29 C3 29.66 3 30.32 3 31 C0.03 31.495 0.03 31.495 -3 32 C-3 32.66 -3 33.32 -3 34 C-10.71764481 35.91198988 -18.06989035 36.30519798 -26 36.25 C-27.11117187 36.25773437 -28.22234375 36.26546875 -29.3671875 36.2734375 C-46.48266351 36.23316579 -46.48266351 36.23316579 -50.7734375 32.42675781 C-51.17820313 31.95592773 -51.58296875 31.48509766 -52 31 C-51.505 29.515 -51.505 29.515 -51 28 C-50.34773437 28.27714844 -49.69546875 28.55429688 -49.0234375 28.83984375 C-48.14945313 29.20207031 -47.27546875 29.56429687 -46.375 29.9375 C-45.51648438 30.29714844 -44.65796875 30.65679687 -43.7734375 31.02734375 C-29.86385977 35.90549143 -14.21802556 33.67223464 -1 28 C0.16982422 27.60941406 0.16982422 27.60941406 1.36328125 27.2109375 C3.29418279 26.0577604 3.29418279 26.0577604 3.609375 23.3125 C3.65578125 22.219375 3.7021875 21.12625 3.75 20 C3.80542969 18.84113281 3.86085937 17.68226563 3.91796875 16.48828125 C4.02376357 11.98948249 4.09141056 7.49943072 4 3 C3.33613281 3.49371094 2.67226562 3.98742187 1.98828125 4.49609375 C1.10527344 5.13675781 0.22226563 5.77742187 -0.6875 6.4375 C-1.55761719 7.07558594 -2.42773438 7.71367187 -3.32421875 8.37109375 C-5.98310742 9.98971649 -7.93887169 10.6083962 -11 11 C-11 10.34 -11 9.68 -11 9 C-9.68 8.67 -8.36 8.34 -7 8 C-7 7.34 -7 6.68 -7 6 C-6.21625 5.7525 -5.4325 5.505 -4.625 5.25 C-1.67682892 3.84610901 -1.0975223 2.99324263 0 0 Z " fill="#3F769B" transform="translate(195,218)"/>
<path d="M0 0 C0.33 0 0.66 0 1 0 C1.06008293 3.31241788 1.09426485 6.62469026 1.125 9.9375 C1.14175781 10.84435547 1.15851563 11.75121094 1.17578125 12.68554688 C1.23797305 21.73445335 0.08468639 29.78016567 -1 39 C18.14 39 37.28 39 57 39 C56.67 33.39 56.34 27.78 56 22 C52.37064453 22.01740234 52.37064453 22.01740234 48.66796875 22.03515625 C46.32478975 22.04295482 43.98161219 22.04902703 41.63842773 22.05493164 C40.00984042 22.05996065 38.38125763 22.06678465 36.75268555 22.07543945 C34.41193528 22.08756769 32.0712447 22.09324263 29.73046875 22.09765625 C29.00224411 22.10281754 28.27401947 22.10797882 27.52372742 22.11329651 C24.40397712 22.11364279 21.98366812 21.99455604 19 21 C19 19.02 19 17.04 19 15 C19.33 15 19.66 15 20 15 C20 16.65 20 18.3 20 20 C33.2 20 46.4 20 60 20 C59.48613982 26.68018238 58.94751136 33.36742048 58 40 C37.87 40 17.74 40 -3 40 C-3 33.91782883 -2.96552612 28.4196253 -2.34375 22.4609375 C-2.27716187 21.80920563 -2.21057373 21.15747375 -2.14196777 20.48599243 C-1.93271459 18.44847074 -1.71651189 16.41176172 -1.5 14.375 C-1.355003 12.97530859 -1.21046844 11.57556919 -1.06640625 10.17578125 C-0.71546571 6.783356 -0.35988674 3.39148585 0 0 Z " fill="#D0ECF9" transform="translate(217,210)"/>
<path d="M0 0 C0.66 0 1.32 0 2 0 C1.63049693 12.02796185 0.8635027 23.96541571 -0.35379028 35.93572998 C-1.3788358 46.07407316 -2.30278192 56.17531078 -2.375 66.375 C-2.38861572 67.21675781 -2.40223145 68.05851562 -2.41625977 68.92578125 C-2.37674149 74.26995195 -1.36772961 78.80112087 0.35693359 83.85791016 C1 86 1 86 1 89 C-2.36824086 87.20360487 -2.97379462 86.0850904 -4.12060547 82.36132812 C-5.05321571 78.28168957 -5.22911871 74.4107195 -5.1953125 70.21875 C-5.1924826 69.51979614 -5.18965271 68.82084229 -5.18673706 68.10070801 C-5.1756727 65.90028684 -5.15059606 63.70029507 -5.125 61.5 C-5.11495235 59.99479761 -5.10582965 58.48958874 -5.09765625 56.984375 C-5.07577893 53.32278062 -5.04134696 49.66143232 -5 46 C-4.34 46 -3.68 46 -3 46 C-3.01571045 44.86570557 -3.01571045 44.86570557 -3.03173828 43.70849609 C-3.07345416 40.26403155 -3.09937583 36.8196203 -3.125 33.375 C-3.14175781 32.18519531 -3.15851562 30.99539062 -3.17578125 29.76953125 C-3.18222656 28.61582031 -3.18867188 27.46210938 -3.1953125 26.2734375 C-3.20578613 25.21560059 -3.21625977 24.15776367 -3.22705078 23.06787109 C-2.98190441 19.75549547 -2.11395716 17.11650442 -1 14 C-0.72178875 11.54859141 -0.51442655 9.08820235 -0.375 6.625 C-0.30023437 5.37976563 -0.22546875 4.13453125 -0.1484375 2.8515625 C-0.09945313 1.91054687 -0.05046875 0.96953125 0 0 Z " fill="#42769B" transform="translate(31,146)"/>
<path d="M0 0 C7.26 0 14.52 0 22 0 C23.12451527 6.74709165 23.12451527 6.74709165 22.65454102 10.52294922 C22.50432495 11.7886525 22.50432495 11.7886525 22.35107422 13.07992554 C22.23650879 13.97909698 22.12194336 14.87826843 22.00390625 15.8046875 C21.77164182 17.7596974 21.5399745 19.71477831 21.30883789 21.66992188 C21.18622589 22.68497803 21.06361389 23.70003418 20.93728638 24.74584961 C18.38603109 45.56298081 18.38603109 45.56298081 17.5625 66.5 C17.56515869 67.41507324 17.56781738 68.33014648 17.57055664 69.27294922 C17.67679346 73.8397988 18.1157432 77.76209858 20 82 C20.66 82.33 21.32 82.66 22 83 C21.01 83 20.02 83 19 83 C14.95546113 77.08875089 14.80721481 73.05011456 14.8125 66.0625 C14.81262085 64.58100464 14.81262085 64.58100464 14.81274414 63.06958008 C14.87315262 55.13572166 15.55328352 47.38897537 16.49609375 39.51953125 C17.01282837 35.14276091 17.28575665 30.77561938 17.5 26.375 C17.92498389 17.85518087 18.93314798 9.46369273 20 1 C13.4 1 6.8 1 0 1 C0 0.67 0 0.34 0 0 Z " fill="#45799B" transform="translate(34,144)"/>
<path d="M0 0 C1.27875 0.28875 2.5575 0.5775 3.875 0.875 C7.9806514 1.84374921 10.70708127 3.36566502 14 6 C14 6.66 14 7.32 14 8 C9.98001007 6.69350327 6.04499426 5.25975811 2.125 3.68359375 C-11.2997827 -0.63504039 -27.04331374 1.54911558 -39.69140625 7.203125 C-44.40541516 9.72364415 -48.71796191 12.81124823 -53 16 C-53 14.35 -53 12.7 -53 11 C-52.01 10.67 -51.02 10.34 -50 10 C-49.67 9.34 -49.34 8.68 -49 8 C-48.34 8 -47.68 8 -47 8 C-47 7.34 -47 6.68 -47 6 C-41.555 5.01 -41.555 5.01 -36 4 C-36 3.34 -36 2.68 -36 2 C-34.741875 1.896875 -33.48375 1.79375 -32.1875 1.6875 C-28.6013372 1.25490344 -27.48713873 0.59527519 -25 -2 C-17.35417248 -4.03888734 -6.94866239 -3.87033024 0 0 Z " fill="#38709B" transform="translate(192,142)"/>
<path d="M0 0 C0.515625 0.70125 1.03125 1.4025 1.5625 2.125 C7.89355382 9.59239681 15.1981896 14.45846899 25 16 C33.78278233 16.67645167 41.14193752 15.79405121 49.453125 12.875 C52 12 52 12 54 12 C53.67 13.65 53.34 15.3 53 17 C44.7394161 18.5317639 36.7617374 19.19360611 28.375 19.1875 C27.51036133 19.18814453 26.64572266 19.18878906 25.75488281 19.18945312 C18.28633631 19.12479038 18.28633631 19.12479038 15 18 C14.67 17.34 14.34 16.68 14 16 C11.97536745 15.34786708 11.97536745 15.34786708 10 15 C10 14.01 10 13.02 10 12 C9.401875 11.87625 8.80375 11.7525 8.1875 11.625 C6 11 6 11 3 9 C3 8.01 3 7.02 3 6 C2.34 6 1.68 6 1 6 C0.67 4.02 0.34 2.04 0 0 Z " fill="#3F749A" transform="translate(33,235)"/>
<path d="M0 0 C0.66 0 1.32 0 2 0 C3.2666969 4.0374771 4.5300169 8.07599084 5.7902832 12.11547852 C6.21905438 13.48816091 6.64873044 14.860561 7.0793457 16.23266602 C7.69983956 18.21035567 8.31702098 20.18905364 8.93359375 22.16796875 C9.4913147 23.95110474 9.4913147 23.95110474 10.06030273 25.77026367 C11 29 11 29 12 34 C3.42 34 -5.16 34 -14 34 C-13.67 33.34 -13.34 32.68 -13 32 C-7.06 32.33 -1.12 32.66 5 33 C5 32.34 5 31.68 5 31 C5.66 31 6.32 31 7 31 C6.67 26.05 6.34 21.1 6 16 C5.34 16 4.68 16 4 16 C4 14.68 4 13.36 4 12 C3.34 12 2.68 12 2 12 C1.34 10.35 0.68 8.7 0 7 C-0.0825 7.61875 -0.165 8.2375 -0.25 8.875 C-1 11 -1 11 -3.0625 12.25 C-3.701875 12.4975 -4.34125 12.745 -5 13 C-3.58192622 8.52761347 -1.88695626 4.28853694 0 0 Z " fill="#487A9B" transform="translate(331,182)"/>
<path d="M0 0 C0.04637083 2.57100478 0.05728314 5.13557071 0.02734375 7.70703125 C0.00868063 9.95460457 0.04496431 12.20313596 0.12890625 14.44921875 C0.12499551 17.87894103 -0.01428607 20.71125859 -1 24 C-3.96327099 26.79036383 -7.15570489 27.8175553 -11 29 C-11.7321875 29.31324219 -12.464375 29.62648437 -13.21875 29.94921875 C-21.6690727 33.23710839 -31.09662737 32.24680807 -40 32 C-40 31.67 -40 31.34 -40 31 C-34.47032059 30.28966569 -29.50016964 29.69732824 -24 31 C-24 30.34 -24 29.68 -24 29 C-23.38253906 28.90203125 -22.76507813 28.8040625 -22.12890625 28.703125 C-11.84186458 27.11656856 -11.84186458 27.11656856 -3.76953125 21.28125 C-2.74675293 18.24925741 -2.69832035 15.5706092 -2.6875 12.375 C-2.67074219 11.22773438 -2.65398437 10.08046875 -2.63671875 8.8984375 C-2.75660156 7.94195312 -2.87648437 6.98546875 -3 6 C-3.99 5.34 -4.98 4.68 -6 4 C-1.125 0 -1.125 0 0 0 Z " fill="#D4F1F6" transform="translate(200,220)"/>
<path d="M0 0 C0.33 0 0.66 0 1 0 C1.54064915 5.9471407 0.78816232 9.98066147 -2.29296875 15.1484375 C-5.28810648 18.39716813 -8.80001218 18.514051 -13 19 C-13.33 19.33 -13.66 19.66 -14 20 C-21.50824876 20.57331709 -28.30830067 20.65001781 -35 17 C-36.72292854 15.07090907 -37.76937517 13.30742155 -39 11 C-35.10635283 11.57683662 -32.98810959 13.54821777 -30 16 C-23.48448491 18.17183836 -16.88744441 17.7979137 -10.625 15 C-5.83059093 12.32458254 -3.14637898 9.02152849 -1 4 C-0.63370358 2.67534313 -0.29021738 1.34337737 0 0 Z " fill="#DEF3F9" transform="translate(88,214)"/>
<path d="M0 0 C0.33 0 0.66 0 1 0 C1 1.65 1 3.3 1 5 C14.2 5 27.4 5 41 5 C40 18 40 18 39 24 C38.67 24 38.34 24 38 24 C37.67 18.39 37.34 12.78 37 7 C33.37064453 7.01740234 33.37064453 7.01740234 29.66796875 7.03515625 C27.32478975 7.04295482 24.98161219 7.04902703 22.63842773 7.05493164 C21.00984042 7.05996065 19.38125763 7.06678465 17.75268555 7.07543945 C15.41193528 7.08756769 13.0712447 7.09324263 10.73046875 7.09765625 C10.00224411 7.10281754 9.27401947 7.10797882 8.52372742 7.11329651 C5.40397712 7.11364279 2.98366812 6.99455604 0 6 C0 4.02 0 2.04 0 0 Z " fill="#CDE7F0" transform="translate(236,225)"/>
<path d="M0 0 C0.33 0 0.66 0 1 0 C1.57614591 14.24360729 0.59414636 29.73575452 -5 43 C-5.66 43.66 -6.32 44.32 -7 45 C-6.24579357 38.07566667 -5.43192523 31.16081595 -4.5625 24.25 C-4.44068359 23.23550781 -4.31886719 22.22101563 -4.19335938 21.17578125 C-4.06896484 20.19480469 -3.94457031 19.21382812 -3.81640625 18.203125 C-3.70756104 17.32301758 -3.59871582 16.44291016 -3.48657227 15.53613281 C-2.96838441 12.83521186 -2.0651064 10.52899419 -1 8 C-0.56111075 5.79745973 -0.56111075 5.79745973 -0.375 3.6875 C-0.189375 1.8621875 -0.189375 1.8621875 0 0 Z " fill="#DCF4F9" transform="translate(111,184)"/>
<path d="M0 0 C0.33 0 0.66 0 1 0 C1 2.64 1 5.28 1 8 C1.66 8.33 2.32 8.66 3 9 C2.34 9.66 1.68 10.32 1 11 C0.75622117 14.35744112 0.75622117 14.35744112 0.875 18.125 C0.89304687 19.40632813 0.91109375 20.68765625 0.9296875 22.0078125 C0.95289062 22.99523437 0.97609375 23.98265625 1 25 C1.66 25.33 2.32 25.66 3 26 C3 27.32 3 28.64 3 30 C2.34 30 1.68 30 1 30 C1.66 32.97 2.32 35.94 3 39 C0 38 0 38 -1.171875 35.6796875 C-2.34349 30.47373784 -2.28887192 25.44397467 -2.25 20.125 C-2.25773437 19.07441406 -2.26546875 18.02382812 -2.2734375 16.94140625 C-2.25841996 10.94189968 -1.74430791 5.74514115 0 0 Z " fill="#E4F4F6" transform="translate(123,184)"/>
<path d="M0 0 C-3.54938414 3.84516615 -7.61288008 7.15122083 -12 10 C-12.66 10 -13.32 10 -14 10 C-14.33 10.99 -14.66 11.98 -15 13 C-16 14 -16 14 -18.3125 15.5 C-21.47621193 18.44298784 -22.53097628 21.08153323 -24.0078125 25.07421875 C-25 27 -25 27 -28 28 C-24.89300048 15.88270186 -15.03981256 6.17321532 -4.7265625 -0.3203125 C-3 -1 -3 -1 0 0 Z " fill="#DDF0F7" transform="translate(154,150)"/>
<path d="M0 0 C0.87454834 0.00523682 1.74909668 0.01047363 2.65014648 0.01586914 C3.59438477 0.0190918 4.53862305 0.02231445 5.51147461 0.02563477 C6.50469727 0.03401367 7.49791992 0.04239258 8.52124023 0.05102539 C9.51833008 0.05553711 10.51541992 0.06004883 11.54272461 0.06469727 C14.01478872 0.07652532 16.48673541 0.0930069 18.95874023 0.11352539 C19.28874023 0.77352539 19.61874023 1.43352539 19.95874023 2.11352539 C13.02874023 2.11352539 6.09874023 2.11352539 -1.04125977 2.11352539 C-1.00000977 3.70165039 -0.95875977 5.28977539 -0.91625977 6.92602539 C-0.89515859 15.71466712 -2.02011498 24.39732527 -3.04125977 33.11352539 C-3.37125977 33.11352539 -3.70125977 33.11352539 -4.04125977 33.11352539 C-4.26890406 7.9640837 -4.26890406 7.9640837 -3.04125977 1.11352539 C-2.04125977 0.11352539 -2.04125977 0.11352539 0 0 Z " fill="#3C739B" transform="translate(96.041259765625,142.886474609375)"/>
<path d="M0 0 C-1.09687907 3.18094931 -1.92005143 3.95577313 -4.9375 5.625 C-6.4534375 6.305625 -6.4534375 6.305625 -8 7 C-8.99 7.66 -9.98 8.32 -11 9 C-13.36010742 9.22705078 -13.36010742 9.22705078 -16.10546875 9.1953125 C-17.08837891 9.18886719 -18.07128906 9.18242187 -19.08398438 9.17578125 C-20.10814453 9.15902344 -21.13230469 9.14226562 -22.1875 9.125 C-23.22326172 9.11597656 -24.25902344 9.10695312 -25.32617188 9.09765625 C-27.88434685 9.0740786 -30.44205748 9.0411703 -33 9 C-33.33 7.68 -33.66 6.36 -34 5 C-33.21625 5.165 -32.4325 5.33 -31.625 5.5 C-21.27135428 6.92808906 -12.8338605 5.80971669 -3.6640625 0.8046875 C-2 0 -2 0 0 0 Z " fill="#E5FAF9" transform="translate(194,225)"/>
<path d="M0 0 C1.41530259 3.78935853 0.56665763 6.30002712 -0.6875 10.0625 C-1.02136719 11.10535156 -1.35523438 12.14820313 -1.69921875 13.22265625 C-3.10498862 16.22416489 -4.28544588 17.21048663 -7 19 C-8.44018726 21.88037451 -9.11691503 24.53061437 -9.8125 27.6875 C-11 31 -11 31 -13.625 32.4375 C-14.800625 32.7159375 -14.800625 32.7159375 -16 33 C-14.7365983 28.94534466 -13.23453696 25.27578611 -11.25 21.5234375 C-10.46109375 20.02296875 -10.46109375 20.02296875 -9.65625 18.4921875 C-9.1096875 17.46351563 -8.563125 16.43484375 -8 15.375 C-6.9164842 13.32040872 -5.83314377 11.26572494 -4.75 9.2109375 C-4.27046875 8.30649902 -3.7909375 7.40206055 -3.296875 6.47021484 C-2.17100189 4.32571481 -1.07376223 2.17094969 0 0 Z " fill="#DBF2F7" transform="translate(312,183)"/>
<path d="M0 0 C0.33 0 0.66 0 1 0 C0.88051779 4.92566377 0.75620842 9.85117515 0.62768555 14.77661133 C0.58473559 16.44747727 0.54303823 18.11837595 0.50268555 19.78930664 C0.28198082 28.89269539 0.03015395 37.94349318 -1 47 C-1.66 47 -2.32 47 -3 47 C-4.2530477 42.39266649 -3.87711179 38.03453541 -3.4765625 33.33984375 C-3.41093109 32.51295547 -3.34529968 31.6860672 -3.27767944 30.8341217 C-3.13794886 29.09154052 -2.99486369 27.34922548 -2.84863281 25.60717773 C-2.62552583 22.94377727 -2.41346872 20.27967012 -2.203125 17.61523438 C-2.06575384 15.91921809 -1.92775429 14.22325255 -1.7890625 12.52734375 C-1.72546539 11.73247055 -1.66186829 10.93759735 -1.59634399 10.11863708 C-1.30160308 6.64807102 -0.907244 3.36094387 0 0 Z " fill="#37729C" transform="translate(215,204)"/>
<path d="M0 0 C13.2 0 26.4 0 40 0 C39.67 0.99 39.34 1.98 39 3 C26.13 3 13.26 3 0 3 C0 2.01 0 1.02 0 0 Z " fill="#507D9D" transform="translate(308,233)"/>
<path d="M0 0 C0.33 0 0.66 0 1 0 C1 1.65 1 3.3 1 5 C1.66 5 2.32 5 3 5 C3.33 7.31 3.66 9.62 4 12 C10.435 11.505 10.435 11.505 17 11 C17 11.66 17 12.32 17 13 C9.74 13 2.48 13 -5 13 C-4.22998773 9.14993864 -3.6738858 6.99223427 -1.9375 3.6875 C-1.57527344 2.99011719 -1.21304687 2.29273438 -0.83984375 1.57421875 C-0.56269531 1.05472656 -0.28554688 0.53523437 0 0 Z " fill="#D0EAF5" transform="translate(284,237)"/>
<path d="M0 0 C0.33 0 0.66 0 1 0 C1.0505939 6.51445205 1.08568856 13.02885368 1.10986328 19.54345703 C1.11993825 21.76092421 1.13359859 23.97837805 1.15087891 26.19580078 C1.17506163 29.37796312 1.18646797 32.55995024 1.1953125 35.7421875 C1.20563507 36.73805878 1.21595764 37.73393005 1.22659302 38.75997925 C1.22674408 39.68078278 1.22689514 40.6015863 1.22705078 41.55029297 C1.231492 42.3630368 1.23593323 43.17578064 1.24050903 44.01315308 C1 46 1 46 -1 48 C-2.31344112 43.37642523 -2.1908143 38.90174081 -2.1875 34.125 C-2.18814453 33.1664209 -2.18878906 32.2078418 -2.18945312 31.22021484 C-2.11454967 20.75586214 -1.14249078 10.39484299 0 0 Z " fill="#D8EFF6" transform="translate(30,178)"/>
<path d="M0 0 C0.91330078 0.01353516 1.82660156 0.02707031 2.76757812 0.04101562 C4.99153259 0.07594685 7.21417952 0.12498414 9.4375 0.1875 C9.4375 0.5175 9.4375 0.8475 9.4375 1.1875 C8.39851563 1.21328125 7.35953125 1.2390625 6.2890625 1.265625 C-8.62047611 1.79913155 -17.00293233 5.56334782 -27.5625 16.1875 C-27.76336443 12.47150809 -27.7144437 11.41541555 -25.5625 8.1875 C-24.9025 8.1875 -24.2425 8.1875 -23.5625 8.1875 C-23.5625 7.1975 -23.5625 6.2075 -23.5625 5.1875 C-22.5725 5.1875 -21.5825 5.1875 -20.5625 5.1875 C-20.2325 4.5275 -19.9025 3.8675 -19.5625 3.1875 C-13.24356469 0.03758856 -6.9201121 -0.19800761 0 0 Z " fill="#E8F6F7" transform="translate(174.5625,162.8125)"/>
<path d="M0 0 C0.33 0 0.66 0 1 0 C1.19504458 2.10348074 1.38078496 4.20782585 1.5625 6.3125 C1.66691406 7.48425781 1.77132812 8.65601563 1.87890625 9.86328125 C2 13 2 13 1 16 C0.83322718 19.58343976 0.83322718 19.58343976 1 23 C2.16748999 24.39523855 2.16748999 24.39523855 5.41821289 24.11352539 C6.93636988 24.11336628 8.45453229 24.10767226 9.97265625 24.09765625 C10.77029892 24.0962413 11.56794159 24.09482635 12.38975525 24.09336853 C14.94737435 24.08775316 17.50490718 24.07519812 20.0625 24.0625 C21.79231645 24.05748698 23.52213426 24.05292373 25.25195312 24.04882812 C29.50133553 24.03777875 33.75065312 24.02050386 38 24 C38 24.66 38 25.32 38 26 C25.13 26 12.26 26 -1 26 C-1 17.16428022 -0.8958751 8.73478227 0 0 Z " fill="#3A6C95" transform="translate(238,204)"/>
<path d="M0 0 C6.56104784 1.64026196 6.56104784 1.64026196 8.88183594 3.54223633 C11.59020904 5.40619389 13.37325822 5.4248207 16.640625 5.51171875 C17.71054688 5.54716797 18.78046875 5.58261719 19.8828125 5.61914062 C21.54957031 5.65297852 21.54957031 5.65297852 23.25 5.6875 C24.93996094 5.73874023 24.93996094 5.73874023 26.6640625 5.79101562 C29.44260901 5.87343014 32.22084252 5.94260298 35 6 C31.54596086 9.45403914 26.93316878 9.0880036 22.25 9.25 C13.53519763 9.13205531 6.68461746 6.52207529 0 1 C0 0.67 0 0.34 0 0 Z " fill="#497B9B" transform="translate(149,223)"/>
<path d="M0 0 C6.93 0 13.86 0 21 0 C20.34 8.25 19.68 16.5 19 25 C18.67 25 18.34 25 18 25 C17.9727384 22.95840905 17.95348655 20.91671037 17.9375 18.875 C17.92589844 17.73804688 17.91429687 16.60109375 17.90234375 15.4296875 C17.994673 12.1870844 18.38610094 9.18067388 19 6 C18.34 5.67 17.68 5.34 17 5 C17.33 4.01 17.66 3.02 18 2 C15.37335097 2.0867572 12.75021918 2.19357981 10.125 2.3125 C9.00544922 2.34633789 9.00544922 2.34633789 7.86328125 2.38085938 C5.900396 2.47811945 3.94671678 2.73042294 2 3 C1.34 3.99 0.68 4.98 0 6 C0 4.02 0 2.04 0 0 Z " fill="#D4EFF8" transform="translate(223,145)"/>
<path d="M0 0 C2 3 2 3 5 13 C-2.26 13 -9.52 13 -17 13 C-17.33 11.68 -17.66 10.36 -18 9 C-16.68 9 -15.36 9 -14 9 C-14 9.66 -14 10.32 -14 11 C-13.01 10.67 -12.02 10.34 -11 10 C-9.27204648 9.93197033 -7.54164635 9.91504355 -5.8125 9.9375 C-4.224375 9.958125 -2.63625 9.97875 -1 10 C-0.67 6.7 -0.34 3.4 0 0 Z " fill="#D6F0F8" transform="translate(370,237)"/>
<path d="M0 0 C0.33 0 0.66 0 1 0 C0.86015045 3.37527556 0.71204731 6.75014131 0.5625 10.125 C0.52318359 11.07632813 0.48386719 12.02765625 0.44335938 13.0078125 C0.11099096 20.37105122 0.11099096 20.37105122 -0.52734375 23.98828125 C-1.26180492 28.66819496 -1.14372884 33.33346684 -1.125 38.0625 C-1.12886719 39.04283203 -1.13273437 40.02316406 -1.13671875 41.03320312 C-1.13542969 41.98259766 -1.13414063 42.93199219 -1.1328125 43.91015625 C-1.13168457 44.76746338 -1.13055664 45.62477051 -1.12939453 46.50805664 C-0.99535258 49.0895022 -0.5676104 51.48126409 0 54 C-0.66 54 -1.32 54 -2 54 C-3.30351387 50.04886452 -3.12612281 46.06175257 -3.09765625 41.953125 C-3.0962413 41.18192322 -3.09482635 40.41072144 -3.09336853 39.6161499 C-3.08778534 37.16072662 -3.07523595 34.70539558 -3.0625 32.25 C-3.05748283 30.58203257 -3.0529203 28.91406371 -3.04882812 27.24609375 C-3.03782141 23.16402713 -3.02056836 19.08202919 -3 15 C-2.67 15 -2.34 15 -2 15 C-1.34 10.05 -0.68 5.1 0 0 Z " fill="#C1DEE9" transform="translate(51,171)"/>
<path d="M0 0 C7.26 0 14.52 0 22 0 C22.8142137 4.88528222 23.00489168 7.75890992 22.44140625 12.4921875 C22.30283203 13.69101563 22.16425781 14.88984375 22.02148438 16.125 C21.87001953 17.3625 21.71855469 18.6 21.5625 19.875 C21.41490234 21.13570312 21.26730469 22.39640625 21.11523438 23.6953125 C20.75092306 26.79783465 20.37893987 29.89923634 20 33 C19.67 33 19.34 33 19 33 C18.84484593 22.27712976 19.34144894 11.70145468 20 1 C13.4 1 6.8 1 0 1 C0 0.67 0 0.34 0 0 Z " fill="#38729B" transform="translate(34,144)"/>
<path d="M0 0 C1.32 0.33 2.64 0.66 4 1 C3.67 9.25 3.34 17.5 3 26 C-1 24 -1 24 -3 21 C-2.01 21 -1.02 21 0 21 C0.19461488 18.06281233 0.38097593 15.12550068 0.5625 12.1875 C0.61857422 11.35412109 0.67464844 10.52074219 0.73242188 9.66210938 C0.78076172 8.85966797 0.82910156 8.05722656 0.87890625 7.23046875 C0.9260376 6.49207764 0.97316895 5.75368652 1.02172852 4.99291992 C1.09929638 2.78811208 1.09929638 2.78811208 0 0 Z " fill="#EFFBFA" transform="translate(202,149)"/>
<path d="M0 0 C6.93 0 13.86 0 21 0 C20.67 4.95 20.34 9.9 20 15 C19.67 15 19.34 15 19 15 C18.34 11.04 17.68 7.08 17 3 C12.05 3 7.1 3 2 3 C1.67 4.98 1.34 6.96 1 9 C0.67 9 0.34 9 0 9 C0 6.03 0 3.06 0 0 Z " fill="#D6F1FA" transform="translate(95,145)"/>
<path d="M0 0 C0.66 1.32 1.32 2.64 2 4 C1.34 4 0.68 4 0 4 C-0.33 7.3 -0.66 10.6 -1 14 C-1.66 14 -2.32 14 -3 14 C-3.99 16.64 -4.98 19.28 -6 22 C-6.66 22 -7.32 22 -8 22 C-8.33 22.66 -8.66 23.32 -9 24 C-9.66 24 -10.32 24 -11 24 C-9.39323547 18.54406329 -6.94969106 13.6697853 -4.375 8.625 C-3.95476562 7.79355469 -3.53453125 6.96210938 -3.1015625 6.10546875 C-2.07133925 4.06843641 -1.03741179 2.03337811 0 0 Z " fill="#DBEEF5" transform="translate(331,146)"/>
<path d="M0 0 C0.66 0 1.32 0 2 0 C2.99 3.96 3.98 7.92 5 12 C-3.58 12 -12.16 12 -21 12 C-20.67 11.34 -20.34 10.68 -20 10 C-14.06 10.33 -8.12 10.66 -2 11 C-2 10.34 -2 9.68 -2 9 C-1.34 9 -0.68 9 0 9 C0 6.03 0 3.06 0 0 Z " fill="#6B97B0" transform="translate(338,204)"/>
<path d="M0 0 C2.33294775 -0.04241723 4.66702567 -0.04092937 7 0 C7.33 0.33 7.66 0.66 8 1 C10.46987234 1.10216017 12.90517775 1.1406743 15.375 1.125 C16.09365234 1.12306641 16.81230469 1.12113281 17.55273438 1.11914062 C23.40503616 1.07215515 29.18657301 0.68972863 35 0 C27.58108694 4.94594204 18.6212161 4.66391061 10 4 C6.5515877 3.25428084 3.28864921 2.2730255 0 1 C0 0.67 0 0.34 0 0 Z " fill="#DAF3F9" transform="translate(48,248)"/>
<path d="M0 0 C0.99 0.33 1.98 0.66 3 1 C3 1.66 3 2.32 3 3 C3.61875 3.226875 4.2375 3.45375 4.875 3.6875 C7.61410209 5.37929835 8.05024472 6.99244161 9 10 C11.64 10 14.28 10 17 10 C17.144375 10.598125 17.28875 11.19625 17.4375 11.8125 C17.8872439 13.56150404 18.42892341 15.28677023 19 17 C10.10840201 13.86178895 5.41944414 8.55145897 0 1 C0 0.67 0 0.34 0 0 Z " fill="#D2EDF5" transform="translate(127,230)"/>
<path d="M0 0 C3.89364717 0.57683662 6.01189041 2.54821777 9 5 C12.46712111 6.15570704 15.5414956 6.32835293 19.1875 6.5625 C21.09595703 6.68818359 21.09595703 6.68818359 23.04296875 6.81640625 C24.01878906 6.87699219 24.99460937 6.93757812 26 7 C25.67 7.66 25.34 8.32 25 9 C10.58752658 9.59319631 10.58752658 9.59319631 4 6 C2.27707146 4.07090907 1.23062483 2.30742155 0 0 Z " fill="#EBFEFE" transform="translate(49,225)"/>
<path d="M0 0 C0.33 0 0.66 0 1 0 C1.22768266 3.68656919 1.42864448 7.3741401 1.625 11.0625 C1.68945312 12.10083984 1.75390625 13.13917969 1.8203125 14.20898438 C2.11274965 19.96634078 2.01556322 24.57644249 0 30 C-0.66 30 -1.32 30 -2 30 C-1.38933517 19.99549108 -0.73410601 9.99633717 0 0 Z " fill="#53839D" transform="translate(241,170)"/>
<path d="M0 0 C1.2065625 0.0309375 1.2065625 0.0309375 2.4375 0.0625 C2.4375 0.7225 2.4375 1.3825 2.4375 2.0625 C-8.37676436 6.41150398 -18.07581584 6.49916381 -29.5625 6.0625 C-29.5625 5.7325 -29.5625 5.4025 -29.5625 5.0625 C-24.03282059 4.35216569 -19.06266964 3.75982824 -13.5625 5.0625 C-13.5625 4.4025 -13.5625 3.7425 -13.5625 3.0625 C-12.85222656 2.92972656 -12.14195312 2.79695312 -11.41015625 2.66015625 C-10.49105469 2.48355469 -9.57195312 2.30695313 -8.625 2.125 C-7.70847656 1.95097656 -6.79195312 1.77695313 -5.84765625 1.59765625 C-3.05499644 0.94364874 -2.95318379 0.07202887 0 0 Z " fill="#DEF4FA" transform="translate(189.5625,245.9375)"/>
<path d="M0 0 C1.34086809 5.36347238 0.00749159 8.94862888 -2 14 C-4.0625 17.125 -4.0625 17.125 -6 19 C-6.66 19 -7.32 19 -8 19 C-8 19.66 -8 20.32 -8 21 C-8.66 20.67 -9.32 20.34 -10 20 C-6.7 13.4 -3.4 6.8 0 0 Z " fill="#E2F5F9" transform="translate(295,216)"/>
<path d="M0 0 C-0.33 0.99 -0.66 1.98 -1 3 C-7.08999988 5.99699318 -11.82853006 6.30140562 -18.5 5.6875 C-19.32242188 5.62626953 -20.14484375 5.56503906 -20.9921875 5.50195312 C-22.99605377 5.35049812 -24.99827296 5.17750357 -27 5 C-27 4.67 -27 4.34 -27 4 C-26.03320312 3.96261719 -25.06640625 3.92523438 -24.0703125 3.88671875 C-16.97075562 3.52822627 -10.62249815 2.99012079 -3.85546875 0.62109375 C-2 0 -2 0 0 0 Z " fill="#48799B" transform="translate(191,248)"/>
<path d="M0 0 C-6.39721643 3.8624703 -11.53914518 4.98796708 -19 4 C-22.6875 2.5 -22.6875 2.5 -25 1 C-25 0.67 -25 0.34 -25 0 C-23.00045254 -0.04254356 -20.99958364 -0.04080783 -19 0 C-18.67 0.33 -18.34 0.66 -18 1 C-12.10498799 1.46941762 -4.98123101 -1.66041034 0 0 Z " fill="#4D7E9C" transform="translate(80,228)"/>
<path d="M0 0 C2.6832907 2.60662526 5.18513498 5.18548886 7.5 8.125 C9.86588655 10.84576953 11.82261096 12.36591421 15 14 C14.34 14.66 13.68 15.32 13 16 C7.79940318 13.82300598 5.19768448 11.51437808 2 7 C2 6.01 2 5.02 2 4 C1.34 4 0.68 4 0 4 C0 2.68 0 1.36 0 0 Z " fill="#3D7495" transform="translate(127,231)"/>
<path d="M0 0 C0.33 0 0.66 0 1 0 C1 4.29 1 8.58 1 13 C1.66 13 2.32 13 3 13 C3.33 15.64 3.66 18.28 4 21 C4.99 21.33 5.98 21.66 7 22 C7.33 23.65 7.66 25.3 8 27 C7.34 27 6.68 27 6 27 C5.18162558 25.58671871 4.37053781 24.16921654 3.5625 22.75 C3.11003906 21.96109375 2.65757812 21.1721875 2.19140625 20.359375 C-0.12702576 15.76811948 -0.11003256 11.8835164 -0.0625 6.75 C-0.05347656 5.48671875 -0.04445312 4.2234375 -0.03515625 2.921875 C-0.02355469 1.95765625 -0.01195312 0.9934375 0 0 Z " fill="#3E7295" transform="translate(142,196)"/>
<path d="M0 0 C3.94436419 1.0019446 7.36678507 2.9381911 10.4296875 5.6171875 C10.4296875 6.2771875 10.4296875 6.9371875 10.4296875 7.6171875 C7.05471424 6.52032119 3.73215821 5.35027216 0.4296875 4.0546875 C-2.87553791 2.79615936 -6.04807344 2.05746738 -9.5703125 1.6171875 C-5.84900424 -0.86368467 -4.27099267 -0.57413344 0 0 Z " fill="#447B9E" transform="translate(195.5703125,142.3828125)"/>
<path d="M0 0 C1.04220703 -0.00580078 1.04220703 -0.00580078 2.10546875 -0.01171875 C6.21687906 -0.00397598 10.0924223 0.32859751 14.125 1.125 C14.125 1.455 14.125 1.785 14.125 2.125 C1.75 2.62 1.75 2.62 -10.875 3.125 C-11.205 2.465 -11.535 1.805 -11.875 1.125 C-7.97428911 -0.14828905 -4.05488424 -0.02232046 0 0 Z " fill="#CEEAF2" transform="translate(177.875,142.875)"/>
<path d="M0 0 C-0.33 1.65 -0.66 3.3 -1 5 C-2.95689659 5.22142255 -4.91561952 5.4267568 -6.875 5.625 C-8.51082031 5.79902344 -8.51082031 5.79902344 -10.1796875 5.9765625 C-11.57574219 5.98816406 -11.57574219 5.98816406 -13 6 C-13.66 5.34 -14.32 4.68 -15 4 C-12.87607494 3.3299166 -10.75082476 2.66403203 -8.625 2 C-7.44164063 1.62875 -6.25828125 1.2575 -5.0390625 0.875 C-2 0 -2 0 0 0 Z " fill="#487EA3" transform="translate(87,247)"/>
<path d="M0 0 C-1.08209638 3.13807951 -1.94731786 3.96907788 -4.875 5.6875 C-9.53283721 7.64379163 -12.92494911 8.11534207 -18 8 C-18 7.34 -18 6.68 -18 6 C-16.2675 5.62875 -16.2675 5.62875 -14.5 5.25 C-10.55730263 4.28186435 -7.21738663 2.74415127 -3.6640625 0.8046875 C-2 0 -2 0 0 0 Z " fill="#D8F1F5" transform="translate(194,225)"/>
<path d="M0 0 C2.14588166 3.21882249 3.39802343 6.45123086 4.6875 10.0625 C4.92533203 10.69994141 5.16316406 11.33738281 5.40820312 11.99414062 C6.00030023 13.64194167 6.50661705 15.31999984 7 17 C6.67 17.66 6.34 18.32 6 19 C5.34 19 4.68 19 4 19 C3.67 16.36 3.34 13.72 3 11 C2.34 11 1.68 11 1 11 C0.63743142 9.5437328 0.28520207 8.08488815 -0.0625 6.625 C-0.35833984 5.40683594 -0.35833984 5.40683594 -0.66015625 4.1640625 C-1 2 -1 2 0 0 Z " fill="#D0EBF2" transform="translate(341,155)"/>
<path d="M0 0 C0.33 0 0.66 0 1 0 C1.11261934 6.08144434 0.68656524 11.96008146 0 18 C-0.09539062 18.87011719 -0.19078125 19.74023438 -0.2890625 20.63671875 C-0.52219655 22.75823857 -0.76055297 24.87918343 -1 27 C-1.33 27 -1.66 27 -2 27 C-2.05845196 23.62507371 -2.09374742 20.25027913 -2.125 16.875 C-2.14175781 15.92367187 -2.15851563 14.97234375 -2.17578125 13.9921875 C-2.21104528 8.91416745 -2.03333617 4.75512475 0 0 Z " fill="#5785A2" transform="translate(94,149)"/>
<path d="M0 0 C2.15672794 2.15672794 4.30818157 4.31608367 6.4375 6.5 C8.84786153 8.85157222 11.33569287 10.94467736 14 13 C12.02 13 10.04 13 8 13 C7.67 12.34 7.34 11.68 7 11 C6.34 11 5.68 11 5 11 C5 10.34 5 9.68 5 9 C3.68 8.67 2.36 8.34 1 8 C0.67 5.36 0.34 2.72 0 0 Z " fill="#DAEFF7" transform="translate(144,217)"/>
<path d="M0 0 C0.33 0 0.66 0 1 0 C1.08708752 4.2498709 1.14042181 8.49951239 1.1875 12.75 C1.22520508 14.55984375 1.22520508 14.55984375 1.26367188 16.40625 C1.27333984 17.56640625 1.28300781 18.7265625 1.29296875 19.921875 C1.3086792 20.99018555 1.32438965 22.05849609 1.34057617 23.15917969 C0.96029894 26.33115522 0.12893092 27.67217242 -2 30 C-1 9.46808511 -1 9.46808511 0 0 Z " fill="#BCDCE6" transform="translate(220,173)"/>
<path d="M0 0 C0.33 0 0.66 0 1 0 C1.22580354 3.43658708 1.42762697 6.87417218 1.625 10.3125 C1.68945312 11.28896484 1.75390625 12.26542969 1.8203125 13.27148438 C1.871875 14.20927734 1.9234375 15.14707031 1.9765625 16.11328125 C2.02893066 16.97735596 2.08129883 17.84143066 2.13525391 18.73168945 C2 21 2 21 0 24 C-0.90901939 20.95157135 -1.06173367 18.40338364 -0.87890625 15.234375 C-0.83056641 14.34492188 -0.78222656 13.45546875 -0.73242188 12.5390625 C-0.67634766 11.61867187 -0.62027344 10.69828125 -0.5625 9.75 C-0.48418945 8.34621094 -0.48418945 8.34621094 -0.40429688 6.9140625 C-0.27493175 4.60901113 -0.13997966 2.30442711 0 0 Z " fill="#D1E6F0" transform="translate(91,184)"/>
<path d="M0 0 C0.33 0 0.66 0 1 0 C1.40840238 7.10922669 0.77525315 13.3801301 -2 20 C-2.66 20.66 -3.32 21.32 -4 22 C-3.38487182 16.99109914 -2.7282448 11.99367864 -2 7 C-1.67 7 -1.34 7 -1 7 C-0.67 4.69 -0.34 2.38 0 0 Z " fill="#4F7E9F" transform="translate(89,200)"/>
<path d="M0 0 C0.33 0 0.66 0 1 0 C1.33 3.3 1.66 6.6 2 10 C2.66 9.67 3.32 9.34 4 9 C3.67 11.64 3.34 14.28 3 17 C2.67 16.34 2.34 15.68 2 15 C1.01 15 0.02 15 -1 15 C-0.67 10.05 -0.34 5.1 0 0 Z " fill="#5785A6" transform="translate(276,235)"/>
<path d="M0 0 C2.49551158 2.49551158 3.07575992 4.66076626 4.1875 8 C4.55230469 9.0725 4.91710937 10.145 5.29296875 11.25 C6 14 6 14 5 16 C1.82015383 14.41007692 1.12469745 11.53366459 -0.24609375 8.3671875 C-1.22526071 5.29270472 -0.94114809 3.05873128 0 0 Z " fill="#D2EBF2" transform="translate(364,220)"/>
<path d="M0 0 C0.17273438 0.64453125 0.34546875 1.2890625 0.5234375 1.953125 C1.92982628 4.40445882 1.92982628 4.40445882 5.4765625 4.609375 C6.858573 4.67581781 8.2416781 4.7219252 9.625 4.75 C10.33140625 4.77964844 11.0378125 4.80929688 11.765625 4.83984375 C13.50980047 4.91055357 15.25490827 4.95754035 17 5 C17 5.33 17 5.66 17 6 C11.06 6 5.12 6 -1 6 C-0.67 4.02 -0.34 2.04 0 0 Z " fill="#35698B" transform="translate(319,209)"/>
<path d="M0 0 C0.33 0 0.66 0 1 0 C1.43945469 15.57622739 1.43945469 15.57622739 -1 23 C-1.66 23.66 -2.32 24.32 -3 25 C-2.10570912 16.65328509 -1.05248577 8.32792142 0 0 Z " fill="#E7F8FC" transform="translate(107,204)"/>
<path d="M0 0 C-3.39520235 1.86027058 -6.85964889 2.95459347 -10.5625 4.0625 C-15.29596895 5.4847694 -15.29596895 5.4847694 -20 7 C-20.33 6.34 -20.66 5.68 -21 5 C-18.35261084 3.5393715 -17.10551666 3 -14 3 C-14 2.34 -14 1.68 -14 1 C-9.27616037 0.34843591 -4.78025483 -0.11950637 0 0 Z " fill="#477797" transform="translate(170,143)"/>
<path d="M0 0 C2.8125 -0.3125 2.8125 -0.3125 6 0 C7.6875 2.375 7.6875 2.375 9 5 C9.99 5.66 10.98 6.32 12 7 C11.01 7.33 10.02 7.66 9 8 C6.9921875 6.85546875 6.9921875 6.85546875 4.875 5.1875 C4.17117187 4.64480469 3.46734375 4.10210937 2.7421875 3.54296875 C1 2 1 2 0 0 Z " fill="#DCF0F5" transform="translate(37,240)"/>
<path d="M0 0 C3.09369276 5.56864697 3.10170004 9.75703309 2 16 C0.30566082 12.9530371 -0.49467112 10.17178534 -1.125 6.75 C-1.29257812 5.85796875 -1.46015625 4.9659375 -1.6328125 4.046875 C-1.81457031 3.03367188 -1.81457031 3.03367188 -2 2 C-1.34 2 -0.68 2 0 2 C0 1.34 0 0.68 0 0 Z " fill="#E3F8F9" transform="translate(339,192)"/>
<path d="M0 0 C0.89267578 0.00322266 1.78535156 0.00644531 2.70507812 0.00976562 C4.09823242 0.02233398 4.09823242 0.02233398 5.51953125 0.03515625 C6.45990234 0.03966797 7.40027344 0.04417969 8.36914062 0.04882812 C10.69016837 0.06060999 13.01106769 0.07706067 15.33203125 0.09765625 C15.33203125 0.42765625 15.33203125 0.75765625 15.33203125 1.09765625 C14.28144531 1.13503906 13.23085937 1.17242187 12.1484375 1.2109375 C4.37089472 1.55259384 -2.37974522 2.10427873 -9.66796875 5.09765625 C-8.85546875 3.16015625 -8.85546875 3.16015625 -7.66796875 1.09765625 C-4.78531726 0.13677242 -2.99134604 -0.01905316 0 0 Z " fill="#C1E0E9" transform="translate(168.66796875,162.90234375)"/>
<path d="M0 0 C0.33 0 0.66 0 1 0 C1.84349132 7.47743661 2.39900513 13.80298461 0 21 C-0.33 21 -0.66 21 -1 21 C-0.67 14.07 -0.34 7.14 0 0 Z " fill="#5485A5" transform="translate(238,204)"/>
<path d="M0 0 C0.75410156 0.00451172 1.50820312 0.00902344 2.28515625 0.01367188 C4.14847127 0.02546501 6.01174555 0.04340058 7.875 0.0625 C7.875 0.3925 7.875 0.7225 7.875 1.0625 C5.25134644 1.45096807 2.62709144 1.82374888 0 2.1875 C-0.74636719 2.29964844 -1.49273437 2.41179687 -2.26171875 2.52734375 C-4.20659197 2.79016446 -6.16665038 2.9341515 -8.125 3.0625 C-8.785 2.4025 -9.445 1.7425 -10.125 1.0625 C-6.93675432 -0.53162284 -3.49603338 -0.03924735 0 0 Z " fill="#387090" transform="translate(176.125,163.9375)"/>
<path d="M0 0 C0.99 0.66 1.98 1.32 3 2 C1.85793642 3.50287218 0.71125043 5.00223284 -0.4375 6.5 C-1.39462891 7.75296875 -1.39462891 7.75296875 -2.37109375 9.03125 C-2.90863281 9.6809375 -3.44617188 10.330625 -4 11 C-4.33 11 -4.66 11 -5 11 C-5.1875 8.625 -5.1875 8.625 -5 6 C-4.01 5.34 -3.02 4.68 -2 4 C-0.80767387 1.94996045 -0.80767387 1.94996045 0 0 Z " fill="#D8EFF5" transform="translate(101,229)"/>
<path d="M0 0 C1.90747183 2.86120775 3.00353706 5.35254993 4.1875 8.5625 C4.55230469 9.53316406 4.91710937 10.50382813 5.29296875 11.50390625 C6 14 6 14 5 16 C4.896875 15.360625 4.79375 14.72125 4.6875 14.0625 C4.460625 13.381875 4.23375 12.70125 4 12 C3.01 11.67 2.02 11.34 1 11 C0.67 7.37 0.34 3.74 0 0 Z " fill="#CCE7F0" transform="translate(352,186)"/>
<path d="M0 0 C0.99 0.33 1.98 0.66 3 1 C4.3125 3.875 4.3125 3.875 5 7 C4.01 8.485 4.01 8.485 3 10 C2.34 8.35 1.68 6.7 1 5 C0.01 5 -0.98 5 -2 5 C-1.34 3.35 -0.68 1.7 0 0 Z " fill="#D4EEF3" transform="translate(334,141)"/>
<path d="M0 0 C0.33 0 0.66 0 1 0 C1.3125 3.3125 1.3125 3.3125 1 7 C-1.39740918 8.95578117 -2.87586608 10 -6 10 C-5.67 9.01 -5.34 8.02 -5 7 C-4.34 6.67 -3.68 6.34 -3 6 C-1.95191959 4.02477154 -0.9479589 2.02518491 0 0 Z " fill="#CAEAF2" transform="translate(198,237)"/>
<path d="M0 0 C3.88583614 0.80026774 5.96783542 2.43432227 9 5 C9.99 5.66 10.98 6.32 12 7 C8.8125 7.4375 8.8125 7.4375 5 7 C2.88841619 4.91454966 1.43260857 2.58793807 0 0 Z " fill="#DFF3F8" transform="translate(49,225)"/>
<path d="M0 0 C0.33 0 0.66 0 1 0 C1.06058594 0.94101563 1.12117187 1.88203125 1.18359375 2.8515625 C1.26738281 4.09679687 1.35117188 5.34203125 1.4375 6.625 C1.51871094 7.85476562 1.59992188 9.08453125 1.68359375 10.3515625 C1.96663944 13.61532388 2.41038953 16.77943859 3 20 C2.01 20 1.02 20 0 20 C0 13.4 0 6.8 0 0 Z " fill="#B5D3DF" transform="translate(141,196)"/>
<path d="M0 0 C0.66 0 1.32 0 2 0 C1.06264468 2.8790199 0.12227222 5.71230066 -1.0625 8.5 C-2.11836433 11.31563821 -2.58530004 14.0279836 -3 17 C-4.125 15.375 -4.125 15.375 -5 13 C-3.89467022 8.47819635 -1.87191855 4.25436035 0 0 Z " fill="#DBF3F9" transform="translate(145,179)"/>
<path d="M0 0 C0.33 0 0.66 0 1 0 C1.2358396 5.77807024 0.86783046 10.51324804 -1 16 C-1.66 16 -2.32 16 -3 16 C-3 13.36 -3 10.72 -3 8 C-2.01 8 -1.02 8 0 8 C0 5.36 0 2.72 0 0 Z " fill="#497EA8" transform="translate(242,184)"/>
<path d="M0 0 C1.86775659 2.80163489 2.72678306 4.88041803 3.6875 8.0625 C3.95949219 8.94035156 4.23148437 9.81820312 4.51171875 10.72265625 C5 13 5 13 4 15 C0.43122553 10.34507678 0.31824005 5.65150436 0 0 Z " fill="#CEECF1" transform="translate(358,203)"/>
<path d="M0 0 C0.99 0 1.98 0 3 0 C3.33 1.65 3.66 3.3 4 5 C3.67 4.34 3.34 3.68 3 3 C2.34 3 1.68 3 1 3 C0.87625 3.78375 0.7525 4.5675 0.625 5.375 C0 8 0 8 -2 10 C-1.85950482 8.52031676 -1.71245174 7.04125484 -1.5625 5.5625 C-1.48128906 4.73878906 -1.40007812 3.91507813 -1.31640625 3.06640625 C-1 1 -1 1 0 0 Z " fill="#D8EBEF" transform="translate(330,179)"/>
<path d="M0 0 C0.79921875 0.20367187 1.5984375 0.40734375 2.421875 0.6171875 C3.02515625 0.78476563 3.6284375 0.95234375 4.25 1.125 C3.92 2.115 3.59 3.105 3.25 4.125 C-2.69 2.64 -2.69 2.64 -8.75 1.125 C-4.56924919 -0.9653754 -4.16186737 -1.10167078 0 0 Z " fill="#DDF2F8" transform="translate(188.75,161.875)"/>
<path d="M0 0 C2.19123057 0.98227577 3.77479648 1.74408691 5.375 3.5625 C7.70402275 5.62278935 9.97538534 5.6639317 13 6 C13 6.33 13 6.66 13 7 C8.0600659 7.29058436 4.90174327 7.21320034 1 4 C0.1875 1.8125 0.1875 1.8125 0 0 Z " fill="#3474A0" transform="translate(143,246)"/>
<path d="M0 0 C0.33 0 0.66 0 1 0 C1 3.96 1 7.92 1 12 C0.34 12 -0.32 12 -1 12 C-1 13.98 -1 15.96 -1 18 C-1.33 18 -1.66 18 -2 18 C-2.02689216 16.52093108 -2.04634621 15.04172517 -2.0625 13.5625 C-2.07410156 12.73878906 -2.08570313 11.91507813 -2.09765625 11.06640625 C-2 9 -2 9 -1 8 C-0.76924918 6.65252916 -0.58846937 5.29622435 -0.4375 3.9375 C-0.293125 2.638125 -0.14875 1.33875 0 0 Z " fill="#517DA3" transform="translate(207,151)"/>
<path d="M0 0 C0.66 0.33 1.32 0.66 2 1 C2 1.66 2 2.32 2 3 C3.32 3.33 4.64 3.66 6 4 C6 5.65 6 7.3 6 9 C5.34 9 4.68 9 4 9 C3.34 7.35 2.68 5.7 2 4 C1.01 4 0.02 4 -1 4 C-0.67 2.68 -0.34 1.36 0 0 Z " fill="#2F6F9B" transform="translate(335,136)"/>
<path d="M0 0 C1.65 0 3.3 0 5 0 C3.52307692 5.66153846 3.52307692 5.66153846 0.875 7.375 C-0.053125 7.684375 -0.053125 7.684375 -1 8 C-0.67 5.36 -0.34 2.72 0 0 Z " fill="#DFF4F9" transform="translate(299,241)"/>
<path d="M0 0 C0.144375 0.598125 0.28875 1.19625 0.4375 1.8125 C0.8872439 3.56150404 1.42892341 5.28677023 2 7 C-2.67692308 5.52307692 -2.67692308 5.52307692 -4.3125 2.875 C-4.539375 2.25625 -4.76625 1.6375 -5 1 C-3 0 -3 0 0 0 Z " fill="#E6F5F5" transform="translate(144,240)"/>
<path d="M0 0 C0.33 0 0.66 0 1 0 C1.49230769 7.38461538 1.49230769 7.38461538 -1 10.5 C-1.66 10.995 -2.32 11.49 -3 12 C-3.66 11.67 -4.32 11.34 -5 11 C-4.360625 9.9275 -3.72125 8.855 -3.0625 7.75 C-1.59398727 5.19177818 -0.47145458 2.94659114 0 0 Z " fill="#D5EBF5" transform="translate(88,214)"/>
<path d="M0 0 C0.33 0 0.66 0 1 0 C2.51708428 9.41002278 2.51708428 9.41002278 0 14 C-0.33 14 -0.66 14 -1 14 C-1.08333357 9.1666528 -0.95261487 4.76307437 0 0 Z " fill="#E7F8FC" transform="translate(90,204)"/>
<path d="M0 0 C0.33 0 0.66 0 1 0 C1.19417201 4.17469817 1.05278746 7.30498258 -1 11 C-3.125 12.3125 -3.125 12.3125 -5 13 C-3.58192622 8.52761347 -1.88695626 4.28853694 0 0 Z " fill="#55849D" transform="translate(331,182)"/>
<path d="M0 0 C-1 2 -1 2 -2.77734375 2.703125 C-3.84662109 2.97382813 -3.84662109 2.97382813 -4.9375 3.25 C-5.64777344 3.44078125 -6.35804688 3.6315625 -7.08984375 3.828125 C-8.03537109 3.91320312 -8.03537109 3.91320312 -9 4 C-9.66 3.34 -10.32 2.68 -11 2 C-9.54494642 1.47007308 -8.08581873 0.9513211 -6.625 0.4375 C-5.81289062 0.14746094 -5.00078125 -0.14257812 -4.1640625 -0.44140625 C-2 -1 -2 -1 0 0 Z " fill="#D3ECF4" transform="translate(164,146)"/>
<path d="M0 0 C1.5 1.375 1.5 1.375 3 3 C3 3.66 3 4.32 3 5 C1.02 5 -0.96 5 -3 5 C-3 3.68 -3 2.36 -3 1 C-2.01 0.67 -1.02 0.34 0 0 Z " fill="#F7FBFC" transform="translate(284,244)"/>
<path d="M0 0 C1.32 0 2.64 0 4 0 C4 0.99 4 1.98 4 3 C4.66 3 5.32 3 6 3 C5.67 4.65 5.34 6.3 5 8 C2.74754119 5.31158141 1.11786042 3.35358125 0 0 Z " fill="#DEF3F8" transform="translate(32,232)"/>
<path d="M0 0 C0.66 0 1.32 0 2 0 C0.68938409 4.23429756 -0.94356259 8.07407404 -3 12 C-4.25541557 8.23375329 -3.37061958 6.62811066 -2 3 C-1.34 3 -0.68 3 0 3 C0 2.01 0 1.02 0 0 Z " fill="#3B6F94" transform="translate(330,144)"/>
<path d="M0 0 C1.32 0.33 2.64 0.66 4 1 C1.36 2.98 -1.28 4.96 -4 7 C-4.66 6.67 -5.32 6.34 -6 6 C-4.71034824 4.62437146 -3.37310707 3.29233607 -2 2 C-1.34 2 -0.68 2 0 2 C0 1.34 0 0.68 0 0 Z " fill="#D4EEF3" transform="translate(92,240)"/>
<path d="M0 0 C0.66 0 1.32 0 2 0 C2.66 2.64 3.32 5.28 4 8 C3.01 7.67 2.02 7.34 1 7 C-0.1875 3.9375 -0.1875 3.9375 -1 1 C-0.67 0.67 -0.34 0.34 0 0 Z " fill="#477BA2" transform="translate(363,213)"/>
<path d="M0 0 C2.09970981 3.9171057 2.99334562 7.68576696 4 12 C2 11.0625 2 11.0625 0 9 C-0.36475845 5.97465051 -0.22893297 3.03336186 0 0 Z " fill="#4C7A99" transform="translate(349,238)"/>
<path d="M0 0 C1.32 0 2.64 0 4 0 C4 0.66 4 1.32 4 2 C1.09451118 4.04169485 -0.40142046 5 -4 5 C-4 4.34 -4 3.68 -4 3 C-2.68 2.67 -1.36 2.34 0 2 C0 1.34 0 0.68 0 0 Z " fill="#417495" transform="translate(188,224)"/>
<path d="M0 0 C2.45823172 3.68734758 3.01242616 6.69699971 4 11 C3.01 10.67 2.02 10.34 1 10 C0.37542727 6.56484998 0 3.50935186 0 0 Z " fill="#C3E1ED" transform="translate(348,174)"/>
<path d="M0 0 C0.33 0.99 0.66 1.98 1 3 C-0.75 4.5625 -0.75 4.5625 -3 6 C-4.32 5.67 -5.64 5.34 -7 5 C-4.69 3.35 -2.38 1.7 0 0 Z " fill="#47779C" transform="translate(95,241)"/>
<path d="M0 0 C2.64752004 2.57784846 4.94432065 4.91648098 7 8 C5.35 7.67 3.7 7.34 2 7 C2 6.01 2 5.02 2 4 C1.34 4 0.68 4 0 4 C0 2.68 0 1.36 0 0 Z " fill="#5583A3" transform="translate(127,231)"/>
<path d="M0 0 C0.96706319 3.00864103 1.27677226 5.05360248 0 8 C-2.0625 9.25 -2.0625 9.25 -4 10 C-2.8905928 6.51329166 -1.73662334 3.22515763 0 0 Z " fill="#D5F1F8" transform="translate(292,222)"/>
<path d="M0 0 C2.125 0.375 2.125 0.375 4 1 C2.35830472 3.02054804 0.69088222 5.02043058 -1 7 C-1.33 7 -1.66 7 -2 7 C-2.125 4.625 -2.125 4.625 -2 2 C-1.34 1.34 -0.68 0.68 0 0 Z " fill="#D8F0F7" transform="translate(149,172)"/>
<path d="M0 0 C0.33 0 0.66 0 1 0 C1 1.98 1 3.96 1 6 C-2.16115776 4.63016497 -2.9927092 4.0109362 -5 1 C-2.525 1.495 -2.525 1.495 0 2 C0 1.34 0 0.68 0 0 Z " fill="#BDDEEC" transform="translate(204,169)"/>
<path d="M0 0 C1.65 0.33 3.3 0.66 5 1 C3.75 2.5 3.75 2.5 2 4 C0.68 4 -0.64 4 -2 4 C-2 3.34 -2 2.68 -2 2 C-1.34 2 -0.68 2 0 2 C0 1.34 0 0.68 0 0 Z " fill="#33709A" transform="translate(145,148)"/>
<path d="M0 0 C0.66 1.32 1.32 2.64 2 4 C4.31 4 6.62 4 9 4 C9 4.33 9 4.66 9 5 C5.7 5 2.4 5 -1 5 C-0.67 3.35 -0.34 1.7 0 0 Z " fill="#42799A" transform="translate(319,209)"/>
<path d="M0 0 C1.64350079 3.28700157 2.41321669 5.47930015 3 9 C2.01 9.33 1.02 9.66 0 10 C0 6.7 0 3.4 0 0 Z " fill="#507F9B" transform="translate(339,204)"/>
<path d="M0 0 C0.33 0 0.66 0 1 0 C2.07421875 5.859375 2.07421875 5.859375 2 8 C1.01 9.32 0.02 10.64 -1 12 C-0.67 8.04 -0.34 4.08 0 0 Z " fill="#D7EEF4" transform="translate(219,191)"/>
<path d="M0 0 C0.66 0.99 1.32 1.98 2 3 C1.125 5.6875 1.125 5.6875 0 8 C-0.99 8 -1.98 8 -3 8 C-2.690625 7.236875 -2.38125 6.47375 -2.0625 5.6875 C-1.32106407 3.81210323 -0.63771783 1.91315348 0 0 Z " fill="#D1E9F2" transform="translate(316,175)"/>
<path d="M0 0 C0.33 0.99 0.66 1.98 1 3 C-0.375 5.6875 -0.375 5.6875 -2 8 C-2.33 8 -2.66 8 -3 8 C-2.74438677 5.6568787 -2.40729228 3.32156597 -2 1 C-1.34 0.67 -0.68 0.34 0 0 Z " fill="#387095" transform="translate(314,176)"/>
<path d="M0 0 C1.32 0.33 2.64 0.66 4 1 C4 4.3 4 7.6 4 11 C3.67 11 3.34 11 3 11 C2.87625 9.9275 2.7525 8.855 2.625 7.75 C2.10356064 4.62136385 1.59911746 2.66519576 0 0 Z " fill="#D4F3F9" transform="translate(202,149)"/>
<path d="M0 0 C2.97 0.99 5.94 1.98 9 3 C8.01 3.66 7.02 4.32 6 5 C6 4.34 6 3.68 6 3 C3.69 2.67 1.38 2.34 -1 2 C-0.67 1.34 -0.34 0.68 0 0 Z " fill="#D5F1FA" transform="translate(193,145)"/>
<path d="M0 0 C-0.33 0.99 -0.66 1.98 -1 3 C-2.8125 3.8125 -2.8125 3.8125 -5 4 C-7.25 3.0625 -7.25 3.0625 -9 2 C-2.25 0 -2.25 0 0 0 Z " fill="#4E839F" transform="translate(191,248)"/>
<path d="M0 0 C0 0.66 0 1.32 0 2 C-2.31 2.66 -4.62 3.32 -7 4 C-7.33 3.34 -7.66 2.68 -8 2 C-4.77208445 -0.1519437 -3.71599191 -0.20086443 0 0 Z " fill="#DCF5F9" transform="translate(192,246)"/>
<path d="M0 0 C0.33 0.66 0.66 1.32 1 2 C4.465 1.505 4.465 1.505 8 1 C5.33333333 2.33333333 2.66666667 3.66666667 0 5 C-0.33 4.01 -0.66 3.02 -1 2 C-0.67 1.34 -0.34 0.68 0 0 Z " fill="#4679A7" transform="translate(307,234)"/>
<path d="M0 0 C1.70884005 1.62339805 3.37446717 3.29319053 5 5 C5 5.66 5 6.32 5 7 C4.01 7 3.02 7 2 7 C0 4 0 4 0 0 Z " fill="#3D769C" transform="translate(122,224)"/>
</svg>
